HIERARCHY
ROOT Hips
{
	OFFSET 0.000000 0.000000 0.000000
	CHANNELS 6 Xposition Yposition Zposition Zrotation Yrotation Xrotation 
	JOINT LeftUpLeg_virtual
	{
		OFFSET 0.000000 0.000000 0.000000
		CHANNELS 3 Zrotation Yrotation Xrotation
		JOINT LeftUpLeg
		{
			OFFSET 8.479694 -4.795517 -0.379053
			CHANNELS 3 Zrotation Yrotation Xrotation
			JOINT LeftLeg
			{
				OFFSET 0.485052 -32.551468 0.112863
				CHANNELS 3 Zrotation Yrotation Xrotation
				JOINT LeftFoot
				{
					OFFSET 0.438033 -32.635670 -3.012641
					CHANNELS 3 Zrotation Yrotation Xrotation
					JOINT LeftToeBase
					{
						OFFSET 0.970169 -13.225353 11.864223
						CHANNELS 3 Zrotation Yrotation Xrotation
						End Site
						{
							OFFSET 0.000000 0.000000 0.000000
						}
					}
				}
			}
		}
	}
	JOINT RightUpLeg_virtual
	{
		OFFSET 0.000000 0.000000 0.000000
		CHANNELS 3 Zrotation Yrotation Xrotation
		JOINT RightUpLeg
		{
			OFFSET -8.479694 -4.795517 -0.379053
			CHANNELS 3 Zrotation Yrotation Xrotation
			JOINT RightLeg
			{
				OFFSET -0.484100 -32.551483 0.112903
				CHANNELS 3 Zrotation Yrotation Xrotation
				JOINT RightFoot
				{
					OFFSET -0.438985 -32.635651 -3.012681
					CHANNELS 3 Zrotation Yrotation Xrotation
					JOINT RightToeBase
					{
						OFFSET -0.970169 -13.225354 11.864223
						CHANNELS 3 Zrotation Yrotation Xrotation
						End Site
						{
							OFFSET 0.000000 0.000000 0.000000
						}
					}
				}
			}
		}
	}
	JOINT Spine_virtual
	{
		OFFSET 0.000000 0.000000 0.000000
		CHANNELS 3 Zrotation Yrotation Xrotation
		JOINT Spine
		{
			OFFSET 0.000000 7.722015 1.166203
			CHANNELS 3 Zrotation Yrotation Xrotation
			JOINT Spine1
			{
				OFFSET 0.000000 12.024086 0.248766
				CHANNELS 3 Zrotation Yrotation Xrotation
				JOINT Spine2
				{
					OFFSET -0.000000 11.503036 -0.491240
					CHANNELS 3 Zrotation Yrotation Xrotation
					JOINT Neck_virtual
					{
						OFFSET 0.000000 0.000000 0.000000
						CHANNELS 3 Zrotation Yrotation Xrotation
						JOINT Neck
						{
							OFFSET 0.000000 18.430687 -3.123054
							CHANNELS 3 Zrotation Yrotation Xrotation
							JOINT Head
							{
								OFFSET -0.000000 9.051071 1.034021
								CHANNELS 3 Zrotation Yrotation Xrotation
								End Site
								{
									OFFSET 0.000000 0.000000 0.000000
								}
							}
						}
					}
					JOINT LeftShoulder_virtual
					{
						OFFSET 0.000000 0.000000 0.000000
						CHANNELS 3 Zrotation Yrotation Xrotation
						JOINT LeftShoulder
						{
							OFFSET 6.197824 13.665230 -4.064723
							CHANNELS 3 Zrotation Yrotation Xrotation
							JOINT LeftArm
							{
								OFFSET 7.778132 -0.187073 -1.709282
								CHANNELS 3 Zrotation Yrotation Xrotation
								JOINT LeftForeArm
								{
									OFFSET 21.954697 0.000000 -2.041093
									CHANNELS 3 Zrotation Yrotation Xrotation
									JOINT LeftHand
									{
										OFFSET 22.992908 0.000000 -0.870901
										CHANNELS 3 Zrotation Yrotation Xrotation
										End Site
										{
											OFFSET 0.000000 0.000000 0.000000
										}
									}
								}
							}
						}
					}
					JOINT RightShoulder_virtual
					{
						OFFSET 0.000000 0.000000 0.000000
						CHANNELS 3 Zrotation Yrotation Xrotation
						JOINT RightShoulder
						{
							OFFSET -6.197824 13.665230 -4.064723
							CHANNELS 3 Zrotation Yrotation Xrotation
							JOINT RightArm
							{
								OFFSET -7.778132 -0.187073 -1.709282
								CHANNELS 3 Zrotation Yrotation Xrotation
								JOINT RightForeArm
								{
									OFFSET -21.954697 0.000000 -2.041093
									CHANNELS 3 Zrotation Yrotation Xrotation
									JOINT RightHand
									{
										OFFSET -22.992908 0.000000 -0.870901
										CHANNELS 3 Zrotation Yrotation Xrotation
										End Site
										{
											OFFSET 0.000000 0.000000 0.000000
										}
									}
								}
							}
						}
					}
				}
			}
		}
	}
}
MOTION
Frames: 5
Frame Time: 0.033333
22.781839 54.672550 -23.493984 179.862582 5.149523 -179.887539 6.832343 0.735333 5.613992 1.399884 4.594668 -67.290573 11.093664 2.243979 106.362773 -5.302263 -13.464730 -16.219946 0.000000 0.000000 0.000000 8.810683 1.350399 6.147006 -5.332593 -21.231109 -41.999643 1.121426 -0.467256 108.353752 -4.171006 25.848404 -25.894738 0.000000 0.000000 0.000000 9.314034 2.567548 3.676523 0.115585 -0.791692 4.840676 -2.009766 -2.191836 4.573264 -0.017840 -0.062713 -0.015839 -1.836793 -1.514523 5.216554 -2.390155 1.024079 -9.885676 0.000000 0.000000 0.000000 0.147348 -1.260316 2.123411 -0.206968 -0.069318 -1.504845 -63.676768 -22.491666 17.651369 143.913233 -84.499002 -119.678984 0.000000 0.000000 0.000000 -4.717281 0.381346 0.739135 19.342414 7.060944 0.669579 36.459304 34.366165 -24.918721 -170.245457 69.345845 179.225257 0.000000 0.000000 0.000000 
22.974270 54.731033 -23.759142 179.933356 5.531767 -179.812270 6.885097 1.070773 5.559206 1.555951 4.643104 -66.961453 11.000937 2.110458 106.381289 -5.570177 -13.573010 -15.971023 0.000000 0.000000 0.000000 8.876029 1.528565 6.004087 -5.155787 -21.186091 -41.601169 1.062422 -0.266598 108.119005 -4.164284 25.920641 -25.481245 0.000000 0.000000 0.000000 9.458337 2.696712 3.220686 0.002828 -0.894163 4.379017 -2.146502 -2.212317 4.585492 0.017848 -0.048147 0.059863 -2.030713 -1.598759 5.199486 -2.506730 1.129293 -9.329758 0.000000 0.000000 0.000000 -0.116337 -1.091400 2.146669 -0.052561 -0.226340 -1.577305 -63.510630 -23.118321 18.129132 144.881249 -84.381933 -120.794819 0.000000 0.000000 0.000000 -4.925190 0.392835 0.705784 18.980587 6.985622 0.067371 33.305345 37.096998 -26.555661 -172.099539 67.136873 176.738316 0.000000 0.000000 0.000000 
23.218018 54.782997 -23.999395 179.915215 5.797693 -179.648892 6.864647 1.224346 5.384899 1.871627 4.675898 -66.651807 10.796859 2.065393 106.357356 -5.673967 -13.626962 -15.864916 0.000000 0.000000 0.000000 8.727341 1.547898 5.695662 -4.733456 -20.959151 -41.111462 0.755525 0.016721 107.771321 -2.730207 25.467680 -24.756524 0.000000 0.000000 0.000000 9.513232 2.936417 2.609595 -0.166237 -0.910555 3.917547 -2.296854 -2.244325 4.638940 -0.018101 -0.077399 0.056545 -2.169117 -1.597238 5.298600 -2.575053 1.244728 -8.658787 0.000000 0.000000 0.000000 -0.203821 -1.166371 2.104050 -0.074323 -0.238466 -1.635428 -63.279401 -23.659062 18.678257 145.749803 -84.182129 -121.809812 0.000000 0.000000 0.000000 -5.044906 0.324793 0.605956 18.515420 6.879714 -0.438012 30.498680 39.728212 -28.287860 -173.392972 65.352029 174.880082 0.000000 0.000000 0.000000 
23.508450 54.830463 -24.228170 179.972507 5.911233 -179.651338 6.794738 1.354368 5.292460 2.200938 4.625976 -66.238389 10.497956 1.883572 106.330411 -5.845609 -13.634736 -15.768748 0.000000 0.000000 0.000000 8.868562 1.571819 5.499569 -4.725534 -21.037790 -40.498172 0.564248 0.065705 107.507341 -2.859565 25.529389 -24.563262 0.000000 0.000000 0.000000 9.528834 3.033409 2.169406 -0.350349 -0.869718 3.522198 -2.394495 -2.339042 4.627032 0.012063 -0.165708 0.036789 -2.319292 -1.685718 5.344759 -2.539535 1.339784 -7.871088 0.000000 0.000000 0.000000 -0.384110 -1.266239 2.051375 -0.112739 -0.092206 -1.703501 -63.029457 -24.001454 19.254092 146.641785 -83.991424 -122.779153 0.000000 0.000000 0.000000 -5.245387 0.369597 0.622267 18.021994 6.762149 -0.974722 28.533407 41.959532 -29.674170 -173.960656 64.100335 173.831825 0.000000 0.000000 0.000000 
23.834932 54.869717 -24.424309 179.941921 5.850265 -179.605507 6.694210 1.274428 5.175174 2.590568 4.617385 -65.885296 10.173806 1.821923 106.229065 -6.000280 -13.725431 -15.735470 0.000000 0.000000 0.000000 8.703888 1.604567 5.442537 -4.434517 -20.804515 -39.927414 -0.504710 -0.103643 106.499424 -2.687317 22.891188 -27.811533 0.000000 0.000000 0.000000 9.457223 3.012133 1.714405 -0.630571 -0.905410 3.140709 -2.501808 -2.182520 4.631033 0.046876 -0.041336 0.042285 -2.443554 -1.655064 5.341323 -2.429732 1.404180 -7.066575 0.000000 0.000000 0.000000 -0.523854 -1.358367 2.029890 -0.224118 -0.161755 -1.722707 -62.663584 -24.291991 20.013395 147.346073 -83.800363 -123.530446 0.000000 0.000000 0.000000 -5.390551 0.203241 0.547773 17.579775 6.590947 -1.397828 27.757247 43.575340 -30.475915 -174.389087 63.405001 173.023950 0.000000 0.000000 0.000000 
